<?xml version="1.0" encoding="UTF-8" standalone="no"?>
<svg
   xmlns:dc="http://purl.org/dc/elements/1.1/"
   xmlns:cc="http://creativecommons.org/ns#"
   xmlns:rdf="http://www.w3.org/1999/02/22-rdf-syntax-ns#"
   xmlns:svg="http://www.w3.org/2000/svg"
   xmlns="http://www.w3.org/2000/svg"
   xmlns:sodipodi="http://sodipodi.sourceforge.net/DTD/sodipodi-0.dtd"
   xmlns:inkscape="http://www.inkscape.org/namespaces/inkscape"
   inkscape:version="1.0 (4035a4fb49, 2020-05-01)"
   sodipodi:docname="logo.svg"
   id="svg101"
   version="1.1"
   viewBox="0 0 504 504"
   height="504pt"
   width="504pt">
  <metadata
     id="metadata107">
    <rdf:RDF>
      <cc:Work
         rdf:about="">
        <dc:format>image/svg+xml</dc:format>
        <dc:type
           rdf:resource="http://purl.org/dc/dcmitype/StillImage" />
        <dc:title></dc:title>
      </cc:Work>
    </rdf:RDF>
  </metadata>
  <defs
     id="defs105" />
  <sodipodi:namedview
     inkscape:current-layer="svg101"
     inkscape:window-maximized="1"
     inkscape:window-y="-9"
     inkscape:window-x="-9"
     inkscape:cy="336"
     inkscape:cx="930.66667"
     inkscape:zoom="0.38923711"
     showgrid="false"
     id="namedview103"
     inkscape:window-height="1001"
     inkscape:window-width="1920"
     inkscape:pageshadow="2"
     inkscape:pageopacity="0"
     guidetolerance="10"
     gridtolerance="10"
     objecttolerance="10"
     borderopacity="1"
     bordercolor="#666666"
     pagecolor="#ffffff" />
  <g
     transform="translate(-444)"
     id="surface66">
    <path
       id="path2"
       d="m 750.28125,260.24609 15.87891,17.48047 2.96484,-0.54687 3,0.30859 2.78906,1.14453 2.35156,1.88281 14.12891,-3.80078 79.60156,-7.67187 62.35157,35.67187 -6.51172,47.46875 -41.32032,28.27735 -65.54296,-20.67969 -41.75391,-46.30078 -7.16797,12.23047 -20.49219,37.6875 -29.60937,7.01172 -0.26172,-36.79688 1.69922,-22.01172 -7.98438,-13.66406 -7.90234,-16.69922 8.71484,-15.72656 23.3711,-2.5 z m 0,0"
       style="fill:#0c2bca;fill-opacity:0.632466;fill-rule:nonzero;stroke:none" />
    <path
       id="path4"
       d="m 522.21094,298.54297 21.77734,9.1289 2.45703,-1.74609 2.84766,-0.98828 3.01172,-0.14063 2.92968,0.71094 11.19922,-9.41406 68.89844,-40.59766 71.58594,5.98047 14.16015,45.77344 -25.5,43.08984 -68.13671,8.95703 -57.41407,-24.3164 -1.32812,14.11328 -2.64063,42.82031 -23.875,18.86328 -15.78906,-33.23828 -7.76172,-20.66406 -13.01172,-9.01172 -14.21875,-11.79687 1.25391,-17.9336 20.12109,-12.14062 z m 0,0"
       style="fill:#0c2bca;fill-opacity:0.632466;fill-rule:nonzero;stroke:none" />
    <path
       id="path6"
       d="m 643.09766,191.55859 21.85937,-8.94531 0.5,-2.97266 1.31641,-2.71093 2.02734,-2.23047 2.57422,-1.57031 1.26172,-14.57422 20.01172,-77.421877 54.84765,-46.390625 42.38282,22.351562 12.43359,48.5 -41.84375,54.51562 -57.79297,23.40235 9.04297,10.91797 28.40625,32.14453 -3.53906,30.22265 -34.66797,-12.33984 -20.10156,-9.125 -15.57422,2.83203 -18.39453,1.71094 -11.79688,-13.56641 5.64844,-22.8125 z m 0,0"
       style="fill:#0c2bca;fill-opacity:0.632466;fill-rule:nonzero;stroke:none" />
    <path
       id="path8"
       d="m 596.67578,367.80078 12.77344,-19.86328 -1.29297,-2.72266 -0.47656,-2.97656 0.3789,-2.98828 1.21094,-2.76172 -7.32422,-12.66406 -28.01562,-74.90235 18.32031,-69.45703 47.53516,-6 38.00781,32.59766 -3.01172,68.65625 -33.91797,52.32031 13.66797,3.75781 41.71094,10.03907 14.43359,26.78515 -35.47656,9.77344 -21.69922,4.05859 -11.13281,11.25 -14.08594,11.95313 -17.44531,-4.34766 -8.46094,-21.92578 z m 0,0"
       style="fill:#0c2bca;fill-opacity:0.632466;fill-rule:nonzero;stroke:none" />
    <path
       id="path10"
       d="m 621.86719,313.5 -21.85547,8.94531 -0.5,2.97266 -1.31641,2.71094 -2.02734,2.23046 -2.57422,1.57032 -1.26172,14.57422 -20.01562,77.42578 -54.84766,46.39062 -42.37891,-22.35547 -12.4375,-48.5 41.84766,-54.51562 57.79297,-23.40235 -9.04297,-10.91406 -28.40625,-32.14844 3.53906,-30.22265 34.66797,12.33984 20.10156,9.125 15.57032,-2.82812 18.39843,-1.71485 11.79688,13.57032 -5.64844,22.8125 z m 0,0"
       style="fill:#35ebc2;fill-opacity:0.695938;fill-rule:nonzero;stroke:none" />
    <path
       id="path12"
       d="m 580.06641,163.33203 23.40234,3.17969 1.91797,-2.32422 2.49609,-1.6875 2.8711,-0.91797 3.01562,-0.0742 8.37891,-11.98828 56.04297,-57.046874 70.69531,-12.75 25.52734,40.546874 -13.48047,48.22266 -63.49609,26.28906 -61.75,-8.62891 2.37109,13.97266 8.52735,42.04687 -18.17578,24.40235 -23.85547,-28.02344 -12.84375,-17.95312 -14.90235,-5.33204 -16.78906,-7.71484 -3.42969,-17.64844 16.29688,-16.93359 z m 0,0"
       style="fill:#35ebc2;fill-opacity:0.695938;fill-rule:nonzero;stroke:none" />
    <path
       id="path14"
       d="m 597.05859,152.84766 -9.1289,21.77734 1.75,2.45703 0.98437,2.84766 0.14453,3.01172 -0.71093,2.92968 9.41406,11.19532 40.59375,68.90234 -5.98047,71.58594 -45.76953,14.16015 -43.08985,-25.5 -8.96093,-68.14062 24.32031,-57.41016 -14.11328,-1.32812 -42.82031,-2.64453 -18.86719,-23.8711 33.24219,-15.78906 20.66406,-7.76172 9.00781,-13.01172 11.79688,-14.21875 17.9375,1.25391 12.13671,20.12109 z m 0,0"
       style="fill:#bfb051;fill-opacity:0.2;fill-rule:nonzero;stroke:none" />
    <path
       id="path16"
       d="m 727.82031,318.64453 21.85938,-8.94531 0.5,-2.97266 1.3164,-2.71094 2.02735,-2.23046 2.57422,-1.57032 1.26171,-14.57422 20.01563,-77.42578 54.84375,-46.39062 42.38281,22.35547 12.4375,48.5 -41.84765,54.51562 -57.79297,23.39844 9.04297,10.91797 28.40625,32.14844 -3.53907,30.22265 -34.66797,-12.34375 -20.10156,-9.12109 -15.57031,2.82812 -18.39844,1.71485 -11.79687,-13.57032 5.64843,-22.8125 z m 0,0"
       style="fill:#0c2bca;fill-opacity:0.632466;fill-rule:nonzero;stroke:none" />
    <path
       id="path18"
       d="m 750.28125,260.24609 15.87891,17.48047 2.96484,-0.54687 3,0.30859 2.78906,1.14453 2.35156,1.88281 14.12891,-3.80078 79.60156,-7.67187 62.35157,35.67187 -6.51172,47.46875 -41.32032,28.27735 -65.54296,-20.67969 -41.75391,-46.30078 -7.16797,12.23047 -20.49219,37.6875 -29.60937,7.01172 -0.26172,-36.79688 1.69922,-22.01172 -7.98438,-13.66406 -7.90234,-16.69922 8.71484,-15.72656 23.3711,-2.5 z m 0,0"
       style="fill:#bfb051;fill-opacity:0.2;fill-rule:nonzero;stroke:none" />
    <path
       id="path20"
       d="m 734.01953,277.36328 21.77734,9.12891 2.45704,-1.75 2.84765,-0.98438 3.01172,-0.14453 2.92969,0.71094 11.19531,-9.41016 68.90234,-40.59765 71.58594,5.98046 14.16016,45.77344 -25.5,43.08985 -68.14063,8.95703 -57.41015,-24.31641 -1.32813,14.11328 -2.64453,42.81641 -23.87109,18.86719 -15.78907,-33.23829 -7.76171,-20.66796 -13.01172,-9.00782 -14.21875,-11.79687 1.2539,-17.9375 20.1211,-12.13672 z m 0,0"
       style="fill:#0c2bca;fill-opacity:0.632466;fill-rule:nonzero;stroke:none" />
    <path
       id="path22"
       d="m 727.82031,318.64453 21.85938,-8.94531 0.5,-2.97266 1.3164,-2.71094 2.02735,-2.23046 2.57422,-1.57032 1.26171,-14.57422 20.01563,-77.42578 54.84375,-46.39062 42.38281,22.35547 12.4375,48.5 -41.84765,54.51562 -57.79297,23.39844 9.04297,10.91797 28.40625,32.14844 -3.53907,30.22265 -34.66797,-12.34375 -20.10156,-9.12109 -15.57031,2.82812 -18.39844,1.71485 -11.79687,-13.57032 5.64843,-22.8125 z m 0,0"
       style="fill:#f30a38;fill-opacity:0.958813;fill-rule:nonzero;stroke:none" />
    <path
       id="path24"
       d="m 744.94141,346.62109 12.77343,-19.86328 -1.29297,-2.72265 -0.47656,-2.97657 0.37891,-2.98828 1.21094,-2.76172 -7.32422,-12.66406 -28.01563,-74.90234 18.32031,-69.46094 47.53516,-5.99609 38.00781,32.59375 -3.01172,68.66015 -33.91796,52.31641 13.66796,3.75781 41.71094,10.03906 14.4336,26.78516 -35.47657,9.77734 -21.69922,4.05469 -11.13281,11.25 -14.08594,11.95703 -17.44531,-4.34765 -8.46094,-21.92579 z m 0,0"
       style="fill:#35ebc2;fill-opacity:0.695938;fill-rule:nonzero;stroke:none" />
    <path
       id="path26"
       d="m 833.67578,292.32031 -21.85547,8.94531 -0.5,2.97266 -1.3164,2.71094 -2.02735,2.23047 -2.57422,1.57031 -1.26172,14.57422 -20.01562,77.42187 -54.84766,46.39063 -42.3789,-22.35156 -12.4375,-48.5 41.84765,-54.51563 57.79297,-23.40234 -9.04297,-10.91797 -28.41015,-32.14453 3.54297,-30.22266 34.66796,12.33984 20.10157,9.125 15.57031,-2.83203 18.39453,-1.71093 11.80078,13.5664 -5.64844,22.8125 z m 0,0"
       style="fill:#0c2bca;fill-opacity:0.632466;fill-rule:nonzero;stroke:none" />
    <path
       id="path28"
       d="m 516.52344,311.59766 23.40234,3.17968 1.91797,-2.32422 2.49609,-1.6875 2.8711,-0.91796 3.01562,-0.0742 8.37891,-11.98828 56.04687,-57.04688 70.69141,-12.75 25.52734,40.54688 -13.48047,48.22265 -63.49609,26.28906 -61.75,-8.6289 2.37109,13.97265 8.52735,42.04688 -18.17578,24.40234 -23.85157,-28.02343 -12.84765,-17.95313 -14.90235,-5.33203 -16.78906,-7.71484 -3.42969,-17.64844 16.29688,-16.9336 z m 0,0"
       style="fill:#35ebc2;fill-opacity:0.695938;fill-rule:nonzero;stroke:none" />
    <path
       id="path30"
       d="m 597.05859,279.92969 -9.1289,21.78125 1.75,2.45703 0.98437,2.84765 0.14453,3.01172 -0.71093,2.92969 9.41406,11.19531 40.59375,68.89844 -5.98047,71.58594 -45.76953,14.16406 -43.08985,-25.5 -8.96093,-68.14062 24.32031,-57.41016 -14.11328,-1.32813 -42.82031,-2.64453 -18.86719,-23.87109 33.24219,-15.78906 20.66406,-7.76172 9.00781,-13.01172 11.79688,-14.21875 17.9375,1.25 12.13671,20.125 z m 0,0"
       style="fill:#f30a38;fill-opacity:0.958813;fill-rule:nonzero;stroke:none" />
    <path
       id="path32"
       d="m 516.01562,339.82422 21.85547,-8.94531 0.5,-2.97266 1.31641,-2.71094 2.02734,-2.23047 2.57422,-1.57031 1.26172,-14.57422 20.01563,-77.42187 54.84765,-46.39063 42.37891,22.35156 12.4375,48.5 -41.84766,54.51563 -57.79297,23.40234 9.04297,10.91797 28.40625,32.14453 -3.53906,30.22266 -34.66797,-12.33984 -20.10156,-9.125 -15.57031,2.83203 -18.39844,1.71093 -11.79688,-13.5664 5.64844,-22.8125 z m 0,0"
       style="fill:#bfb051;fill-opacity:0.2;fill-rule:nonzero;stroke:none" />
    <path
       id="path34"
       d="m 538.47266,281.42969 15.8789,17.47656 2.96485,-0.54688 3,0.3125 2.78906,1.14063 2.35547,1.88281 14.125,-3.79687 79.60156,-7.67578 62.35156,35.67187 -6.51172,47.46875 -41.32031,28.27734 -65.53906,-20.67578 -41.75781,-46.30468 -7.16797,12.23046 -20.49219,37.69141 -29.60938,7.00781 -0.25781,-36.79687 1.69531,-22.01172 -7.98437,-13.66406 -7.90234,-16.69922 8.71484,-15.72656 23.37109,-2.4961 z m 0,0"
       style="fill:#0c2bca;fill-opacity:0.632466;fill-rule:nonzero;stroke:none" />
    <path
       id="path36"
       d="m 522.21094,298.54297 21.77734,9.1289 2.45703,-1.74609 2.84766,-0.98828 3.01172,-0.14063 2.92968,0.71094 11.19922,-9.41406 68.89844,-40.59766 71.58594,5.98047 14.16015,45.77344 -25.5,43.08984 -68.13671,8.95703 -57.41407,-24.3164 -1.32812,14.11328 -2.64063,42.82031 -23.875,18.86328 -15.78906,-33.23828 -7.76172,-20.66406 -13.01172,-9.01172 -14.21875,-11.79687 1.25391,-17.9336 20.12109,-12.14062 z m 0,0"
       style="fill:#0c2bca;fill-opacity:0.632466;fill-rule:nonzero;stroke:none" />
    <path
       id="path38"
       d="m 516.01562,339.82422 21.85547,-8.94531 0.5,-2.97266 1.31641,-2.71094 2.02734,-2.23047 2.57422,-1.57031 1.26172,-14.57422 20.01563,-77.42187 54.84765,-46.39063 42.37891,22.35156 12.4375,48.5 -41.84766,54.51563 -57.79297,23.40234 9.04297,10.91797 28.40625,32.14453 -3.53906,30.22266 -34.66797,-12.33984 -20.10156,-9.125 -15.57031,2.83203 -18.39844,1.71093 -11.79688,-13.5664 5.64844,-22.8125 z m 0,0"
       style="fill:#35ebc2;fill-opacity:0.695938;fill-rule:nonzero;stroke:none" />
    <path
       id="path40"
       d="m 660.21875,219.53516 12.77344,-19.86329 -1.29688,-2.72265 -0.47265,-2.97656 0.3789,-2.98829 1.21094,-2.76171 -7.32422,-12.66407 -28.01562,-74.90234 18.3164,-69.457031 47.53906,-6 38.00782,32.597656 -3.01172,68.656255 -33.91797,52.32031 13.66797,3.75781 41.71094,10.03906 14.43359,26.78516 -35.47656,9.77344 -21.69922,4.05859 -11.13281,11.25 -14.08594,11.95312 -17.44531,-4.34765 -8.46094,-21.92578 z m 0,0"
       style="fill:#35ebc2;fill-opacity:0.695938;fill-rule:nonzero;stroke:none" />
    <path
       id="path42"
       d="m 748.95312,165.23437 -21.85546,8.94532 -0.5,2.97265 -1.31641,2.71094 -2.02734,2.23047 -2.57422,1.57031 -1.26172,14.57422 -20.01563,77.42578 -54.84765,46.39063 -42.37891,-22.35547 -12.4375,-48.5 41.84766,-54.51563 57.78906,-23.40234 -9.03906,-10.91406 -28.41016,-32.14844 3.54297,-30.222656 34.66797,12.339846 20.10156,9.125 15.57031,-2.82813 18.39453,-1.71484 11.79688,13.57031 -5.64453,22.8125 z m 0,0"
       style="fill:#bfb051;fill-opacity:0.2;fill-rule:nonzero;stroke:none" />
    <path
       id="path44"
       d="m 643.60937,163.33203 23.40235,3.17969 1.91797,-2.32422 2.49609,-1.6875 2.87109,-0.91797 3.01172,-0.0742 8.38282,-11.98828 56.04296,-57.046874 70.69532,-12.75 25.52734,40.546874 -13.48047,48.22266 -63.5,26.28906 -61.75,-8.62891 2.3711,13.97266 8.53125,42.04687 -18.17579,24.40235 -23.85546,-28.02344 -12.84375,-17.95312 -14.90235,-5.33204 -16.78906,-7.71484 -3.42969,-17.64844 16.29688,-16.93359 z m 0,0"
       style="fill:#f30a38;fill-opacity:0.958813;fill-rule:nonzero;stroke:none" />
    <path
       id="path46"
       d="m 724.14453,131.66406 -9.12891,21.78125 1.75,2.45703 0.98438,2.84766 0.14453,3.01172 -0.71094,2.92969 9.41016,11.19531 40.59766,68.89844 -5.98047,71.58593 -45.77344,14.16407 -43.08984,-25.5 -8.95704,-68.14063 24.31641,-57.41016 -14.11328,-1.32812 -42.81641,-2.64453 -18.86718,-23.8711 33.23828,-15.78906 20.66797,-7.76172 9.00781,-13.01171 11.79687,-14.21875 17.9375,1.25 12.13672,20.125 z m 0,0"
       style="fill:#35ebc2;fill-opacity:0.695938;fill-rule:nonzero;stroke:none" />
    <path
       id="path48"
       d="m 643.09766,191.55859 21.85937,-8.94531 0.5,-2.97266 1.31641,-2.71093 2.02734,-2.23047 2.57422,-1.57031 1.26172,-14.57422 20.01172,-77.421877 54.84765,-46.390625 42.38282,22.351562 12.43359,48.5 -41.84375,54.51562 -57.79297,23.40235 9.04297,10.91797 28.40625,32.14453 -3.53906,30.22265 -34.66797,-12.33984 -20.10156,-9.125 -15.57422,2.83203 -18.39453,1.71094 -11.79688,-13.56641 5.64844,-22.8125 z m 0,0"
       style="fill:#35ebc2;fill-opacity:0.695938;fill-rule:nonzero;stroke:none" />
    <path
       id="path50"
       d="m 665.55859,133.16406 15.87891,17.47656 2.96484,-0.54687 3,0.3125 2.78907,1.14062 2.35156,1.88282 14.1289,-3.79688 79.60157,-7.67578 62.35156,35.67188 -6.51172,47.46875 -41.32031,28.27734 -65.54297,-20.67578 -41.75391,-46.30469 -7.16797,12.23047 -20.49218,37.69141 -29.60938,7.00781 -0.26172,-36.79688 1.69922,-22.01172 -7.98437,-13.66406 -7.90235,-16.69922 8.71485,-15.72656 23.36718,-2.49609 z m 0,0"
       style="fill:#0c2bca;fill-opacity:0.632466;fill-rule:nonzero;stroke:none" />
    <path
       id="path52"
       d="m 585.75391,298.54297 21.77734,9.1289 2.45703,-1.74609 2.84766,-0.98828 3.01172,-0.14063 2.92968,0.71094 11.19532,-9.41406 68.90234,-40.59766 71.58594,5.98047 14.16015,45.77344 -25.5,43.08984 -68.14062,8.95703 -57.41016,-24.3164 -1.32812,14.11328 -2.64453,42.82031 -23.8711,18.86328 -15.78906,-33.23828 -7.76172,-20.66406 -13.01172,-9.01172 -14.21875,-11.79687 1.25391,-17.9336 20.12109,-12.14062 z m 0,0"
       style="fill:#bfb051;fill-opacity:0.2;fill-rule:nonzero;stroke:none" />
    <path
       id="path54"
       d="m 579.55859,339.82422 21.85547,-8.94531 0.5,-2.97266 1.31641,-2.71094 2.02734,-2.23047 2.57422,-1.57031 1.26172,-14.57422 20.01562,-77.42187 54.84375,-46.39063 42.38282,22.35156 12.4375,48.5 -41.84766,54.51563 -57.79297,23.40234 9.04297,10.91797 28.40625,32.14453 -3.53906,30.22266 -34.66797,-12.33984 -20.10156,-9.125 -15.57032,2.83203 -18.39843,1.71093 -11.79688,-13.5664 5.64844,-22.8125 z m 0,0"
       style="fill:#35ebc2;fill-opacity:0.695938;fill-rule:nonzero;stroke:none" />
    <path
       id="path56"
       d="m 596.67578,367.80078 12.77344,-19.86328 -1.29297,-2.72266 -0.47656,-2.97656 0.3789,-2.98828 1.21094,-2.76172 -7.32422,-12.66406 -28.01562,-74.90235 18.32031,-69.45703 47.53516,-6 38.00781,32.59766 -3.01172,68.65625 -33.91797,52.32031 13.66797,3.75781 41.71094,10.03907 14.43359,26.78515 -35.47656,9.77344 -21.69922,4.05859 -11.13281,11.25 -14.08594,11.95313 -17.44531,-4.34766 -8.46094,-21.92578 z m 0,0"
       style="fill:#35ebc2;fill-opacity:0.695938;fill-rule:nonzero;stroke:none" />
    <path
       id="path58"
       d="m 685.41016,313.5 -21.85547,8.94531 -0.5,2.97266 -1.31641,2.71094 -2.02734,2.23046 -2.57422,1.57032 -1.26172,14.57422 -20.01563,77.42578 -54.84765,46.39062 -42.37891,-22.35547 -12.4375,-48.5 41.84766,-54.51562 57.79297,-23.40235 -9.04297,-10.91406 -28.41016,-32.14844 3.54297,-30.22265 34.66797,12.33984 20.10156,9.125 15.57031,-2.82812 18.39454,-1.71485 11.80078,13.57032 -5.64844,22.8125 z m 0,0"
       style="fill:#bfb051;fill-opacity:0.2;fill-rule:nonzero;stroke:none" />
    <path
       id="path60"
       d="m 580.06641,311.59766 23.40234,3.17968 1.91797,-2.32422 2.49609,-1.6875 2.8711,-0.91796 3.01562,-0.0742 8.37891,-11.98828 56.04297,-57.04688 70.69531,-12.75 25.52734,40.54688 -13.48047,48.22265 -63.49609,26.28906 -61.75,-8.6289 2.37109,13.97265 8.52735,42.04688 -18.17578,24.40234 -23.85547,-28.02343 -12.84375,-17.95313 -14.90235,-5.33203 -16.78906,-7.71484 -3.42969,-17.64844 16.29688,-16.9336 z m 0,0"
       style="fill:#f30a38;fill-opacity:0.958813;fill-rule:nonzero;stroke:none" />
    <path
       id="path62"
       d="m 660.60156,279.92969 -9.1289,21.78125 1.75,2.45703 0.98437,2.84765 0.14453,3.01172 -0.71094,2.92969 9.41016,11.19531 40.59766,68.89844 -5.98047,71.58594 -45.77344,14.16406 -43.08984,-25.5 -8.95703,-68.14062 24.3164,-57.41016 -14.10937,-1.32813 -42.82032,-2.64453 -18.86718,-23.87109 33.23828,-15.78906 20.66797,-7.76172 9.00781,-13.01172 11.79687,-14.21875 17.9375,1.25 12.13672,20.125 z m 0,0"
       style="fill:#f30a38;fill-opacity:0.958813;fill-rule:nonzero;stroke:none" />
    <path
       id="path64"
       d="m 516.01562,339.82422 21.85547,-8.94531 0.5,-2.97266 1.31641,-2.71094 2.02734,-2.23047 2.57422,-1.57031 1.26172,-14.57422 20.01563,-77.42187 54.84765,-46.39063 42.37891,22.35156 12.4375,48.5 -41.84766,54.51563 -57.79297,23.40234 9.04297,10.91797 28.40625,32.14453 -3.53906,30.22266 -34.66797,-12.33984 -20.10156,-9.125 -15.57031,2.83203 -18.39844,1.71093 -11.79688,-13.5664 5.64844,-22.8125 z m 0,0"
       style="fill:#35ebc2;fill-opacity:0.695938;fill-rule:nonzero;stroke:none" />
    <path
       id="path66"
       d="m 538.47266,281.42969 15.8789,17.47656 2.96485,-0.54688 3,0.3125 2.78906,1.14063 2.35547,1.88281 14.125,-3.79687 79.60156,-7.67578 62.35156,35.67187 -6.51172,47.46875 -41.32031,28.27734 -65.53906,-20.67578 -41.75781,-46.30468 -7.16797,12.23046 -20.49219,37.69141 -29.60938,7.00781 -0.25781,-36.79687 1.69531,-22.01172 -7.98437,-13.66406 -7.90234,-16.69922 8.71484,-15.72656 23.37109,-2.4961 z m 0,0"
       style="fill:#bfb051;fill-opacity:0.2;fill-rule:nonzero;stroke:none" />
    <path
       id="path68"
       d="m 522.21094,298.54297 21.77734,9.1289 2.45703,-1.74609 2.84766,-0.98828 3.01172,-0.14063 2.92968,0.71094 11.19922,-9.41406 68.89844,-40.59766 71.58594,5.98047 14.16015,45.77344 -25.5,43.08984 -68.13671,8.95703 -57.41407,-24.3164 -1.32812,14.11328 -2.64063,42.82031 -23.875,18.86328 -15.78906,-33.23828 -7.76172,-20.66406 -13.01172,-9.01172 -14.21875,-11.79687 1.25391,-17.9336 20.12109,-12.14062 z m 0,0"
       style="fill:#f30a38;fill-opacity:0.958813;fill-rule:nonzero;stroke:none" />
    <path
       id="path70"
       d="m 516.01562,339.82422 21.85547,-8.94531 0.5,-2.97266 1.31641,-2.71094 2.02734,-2.23047 2.57422,-1.57031 1.26172,-14.57422 20.01563,-77.42187 54.84765,-46.39063 42.37891,22.35156 12.4375,48.5 -41.84766,54.51563 -57.79297,23.40234 9.04297,10.91797 28.40625,32.14453 -3.53906,30.22266 -34.66797,-12.33984 -20.10156,-9.125 -15.57031,2.83203 -18.39844,1.71093 -11.79688,-13.5664 5.64844,-22.8125 z m 0,0"
       style="fill:#f30a38;fill-opacity:0.958813;fill-rule:nonzero;stroke:none" />
    <path
       id="path72"
       d="m 533.13672,367.80078 12.76953,-19.86328 -1.29297,-2.72266 -0.47656,-2.97656 0.38281,-2.98828 1.20703,-2.76172 -7.32422,-12.66406 -28.01562,-74.90235 18.32031,-69.45703 47.53516,-6 38.00781,32.59766 -3.01172,68.65625 -33.91797,52.32031 13.66797,3.75781 41.71094,10.03907 14.43359,26.78515 -35.47656,9.77344 -21.69922,4.05859 -11.13281,11.25 -14.08594,11.95313 -17.44531,-4.34766 -8.46094,-21.92578 z m 0,0"
       style="fill:#35ebc2;fill-opacity:0.695938;fill-rule:nonzero;stroke:none" />
    <path
       id="path74"
       d="m 621.86719,313.5 -21.85547,8.94531 -0.5,2.97266 -1.31641,2.71094 -2.02734,2.23046 -2.57422,1.57032 -1.26172,14.57422 -20.01562,77.42578 -54.84766,46.39062 -42.37891,-22.35547 -12.4375,-48.5 41.84766,-54.51562 57.79297,-23.40235 -9.04297,-10.91406 -28.40625,-32.14844 3.53906,-30.22265 34.66797,12.33984 20.10156,9.125 15.57032,-2.82812 18.39843,-1.71485 11.79688,13.57032 -5.64844,22.8125 z m 0,0"
       style="fill:#bfb051;fill-opacity:0.2;fill-rule:nonzero;stroke:none" />
    <path
       id="path76"
       d="m 580.06641,163.33203 23.40234,3.17969 1.91797,-2.32422 2.49609,-1.6875 2.8711,-0.91797 3.01562,-0.0742 8.37891,-11.98828 56.04297,-57.046874 70.69531,-12.75 25.52734,40.546874 -13.48047,48.22266 -63.49609,26.28906 -61.75,-8.62891 2.37109,13.97266 8.52735,42.04687 -18.17578,24.40235 -23.85547,-28.02344 -12.84375,-17.95312 -14.90235,-5.33204 -16.78906,-7.71484 -3.42969,-17.64844 16.29688,-16.93359 z m 0,0"
       style="fill:#0c2bca;fill-opacity:0.632466;fill-rule:nonzero;stroke:none" />
    <path
       id="path78"
       d="m 660.60156,131.66406 -9.1289,21.78125 1.75,2.45703 0.98437,2.84766 0.14453,3.01172 -0.71094,2.92969 9.41016,11.19531 40.59766,68.89844 -5.98047,71.58593 -45.77344,14.16407 -43.08984,-25.5 -8.95703,-68.14063 24.3164,-57.41016 -14.10937,-1.32812 -42.82032,-2.64453 -18.86718,-23.8711 33.23828,-15.78906 20.66797,-7.76172 9.00781,-13.01171 11.79687,-14.21875 17.9375,1.25 12.13672,20.125 z m 0,0"
       style="fill:#35ebc2;fill-opacity:0.695938;fill-rule:nonzero;stroke:none" />
    <path
       id="path80"
       d="m 579.55859,191.55859 21.85547,-8.94531 0.5,-2.97266 1.31641,-2.71093 2.02734,-2.23047 2.57422,-1.57031 1.26172,-14.57422 20.01562,-77.421877 54.84375,-46.390625 42.38282,22.351562 12.4375,48.5 -41.84766,54.51562 -57.79297,23.40235 9.04297,10.91797 28.40625,32.14453 -3.53906,30.22265 -34.66797,-12.33984 -20.10156,-9.125 -15.57032,2.83203 -18.39843,1.71094 -11.79688,-13.56641 5.64844,-22.8125 z m 0,0"
       style="fill:#f30a38;fill-opacity:0.958813;fill-rule:nonzero;stroke:none" />
    <path
       id="path82"
       d="m 602.01562,133.16406 15.87891,17.47656 2.96484,-0.54687 3,0.3125 2.78907,1.14062 2.35547,1.88282 14.125,-3.79688 79.60156,-7.67578 62.35156,35.67188 -6.51172,47.46875 -41.32031,28.27734 -65.54297,-20.67578 -41.75391,-46.30469 -7.16796,12.23047 -20.49219,37.69141 -29.60938,7.00781 -0.26172,-36.79688 1.69922,-22.01172 -7.98437,-13.66406 -7.90235,-16.69922 8.71485,-15.72656 23.37109,-2.49609 z m 0,0"
       style="fill:#35ebc2;fill-opacity:0.695938;fill-rule:nonzero;stroke:none" />
    <path
       id="path84"
       d="m 585.75391,150.27734 21.77734,9.12891 2.45703,-1.74609 2.84766,-0.98829 3.01172,-0.14062 2.92968,0.71094 11.19532,-9.41407 68.90234,-40.59374 71.58594,5.97656 14.16015,45.77343 -25.5,43.08985 -68.14062,8.95703 -57.41016,-24.31641 -1.32812,14.11328 -2.64453,42.82032 -23.8711,18.86328 -15.78906,-33.23828 -7.76172,-20.66407 -13.01172,-9.01171 -14.21875,-11.79688 1.25391,-17.93359 20.12109,-12.14063 z m 0,0"
       style="fill:#0c2bca;fill-opacity:0.632466;fill-rule:nonzero;stroke:none" />
    <path
       id="path86"
       d="m 579.55859,191.55859 21.85547,-8.94531 0.5,-2.97266 1.31641,-2.71093 2.02734,-2.23047 2.57422,-1.57031 1.26172,-14.57422 20.01562,-77.421877 54.84375,-46.390625 42.38282,22.351562 12.4375,48.5 -41.84766,54.51562 -57.79297,23.40235 9.04297,10.91797 28.40625,32.14453 -3.53906,30.22265 -34.66797,-12.33984 -20.10156,-9.125 -15.57032,2.83203 -18.39843,1.71094 -11.79688,-13.56641 5.64844,-22.8125 z m 0,0"
       style="fill:#bfb051;fill-opacity:0.2;fill-rule:nonzero;stroke:none" />
    <path
       id="path88"
       d="m 533.13672,240.71484 12.76953,-19.86328 -1.29297,-2.71875 -0.47656,-2.97656 0.38281,-2.99219 1.20703,-2.76172 -7.32422,-12.66015 -28.01562,-74.90235 18.32031,-69.460934 47.53516,-6 38.00781,32.597657 -3.01172,68.660157 -33.91797,52.3164 13.66797,3.75782 41.71094,10.03906 14.43359,26.78516 -35.47656,9.77734 -21.69922,4.05469 -11.13281,11.25 -14.08594,11.95703 -17.44531,-4.35156 -8.46094,-21.92579 z m 0,0"
       style="fill:#0c2bca;fill-opacity:0.632466;fill-rule:nonzero;stroke:none" />
    <path
       id="path90"
       d="m 621.86719,186.41797 -21.85547,8.94531 -0.5,2.97266 -1.31641,2.71093 -2.02734,2.23047 -2.57422,1.56641 -1.26172,14.57422 -20.01562,77.42578 -54.84766,46.39062 -42.37891,-22.35156 -12.4375,-48.5 41.84766,-54.51562 57.79297,-23.40235 -9.04297,-10.91797 -28.40625,-32.14843 3.53906,-30.21875 34.66797,12.33984 20.10156,9.12109 15.57032,-2.82812 18.39843,-1.71484 11.79688,13.57031 -5.64844,22.8125 z m 0,0"
       style="fill:#0c2bca;fill-opacity:0.632466;fill-rule:nonzero;stroke:none" />
    <path
       id="path92"
       d="m 516.52344,184.51172 23.40234,3.18359 1.91797,-2.32812 2.49609,-1.6875 2.8711,-0.91797 3.01562,-0.0703 8.37891,-11.99219 56.04687,-57.04297 70.69141,-12.75391 25.52734,40.54688 -13.48047,48.22265 -63.49609,26.28907 -61.75,-8.62891 2.37109,13.97656 8.52735,42.04297 -18.17578,24.40235 -23.85157,-28.02344 -12.84765,-17.94922 -14.90235,-5.33594 -16.78906,-7.71484 -3.42969,-17.64844 16.29688,-16.93359 z m 0,0"
       style="fill:#bfb051;fill-opacity:0.2;fill-rule:nonzero;stroke:none" />
    <path
       id="path94"
       d="m 597.05859,152.84766 -9.1289,21.77734 1.75,2.45703 0.98437,2.84766 0.14453,3.01172 -0.71093,2.92968 9.41406,11.19532 40.59375,68.90234 -5.98047,71.58594 -45.76953,14.16015 -43.08985,-25.5 -8.96093,-68.14062 24.32031,-57.41016 -14.11328,-1.32812 -42.82031,-2.64453 -18.86719,-23.8711 33.24219,-15.78906 20.66406,-7.76172 9.00781,-13.01172 11.79688,-14.21875 17.9375,1.25391 12.13671,20.12109 z m 0,0"
       style="fill:#f30a38;fill-opacity:0.958813;fill-rule:nonzero;stroke:none" />
    <path
       id="path96"
       d="m 516.01562,212.73828 21.85547,-8.94531 0.5,-2.97266 1.31641,-2.71094 2.02734,-2.23046 2.57422,-1.57032 1.26172,-14.57031 20.01563,-77.42578 54.84765,-46.390625 42.37891,22.351563 12.4375,48.500002 -41.84766,54.51562 -57.79297,23.40235 9.04297,10.91796 28.40625,32.14844 -3.53906,30.21875 -34.66797,-12.33984 -20.10156,-9.125 -15.57031,2.83203 -18.39844,1.71484 -11.79688,-13.57031 5.64844,-22.8125 z m 0,0"
       style="fill:#0c2bca;fill-opacity:0.632466;fill-rule:nonzero;stroke:none" />
    <path
       id="path98"
       d="m 538.47266,154.34375 15.8789,17.48047 2.96485,-0.54688 3,0.3086 2.78906,1.14062 2.35547,1.88281 14.125,-3.79687 79.60156,-7.67578 62.35156,35.67578 -6.51172,47.46875 -41.32031,28.27344 -65.53906,-20.67578 -41.75781,-46.30469 -7.16797,12.23047 -20.49219,37.6914 -29.60938,7.00782 -0.25781,-36.79688 1.69531,-22.00781 -7.98437,-13.66797 -7.90234,-16.69922 8.71484,-15.72656 23.37109,-2.4961 z m 0,0"
       style="fill:#35ebc2;fill-opacity:0.695938;fill-rule:nonzero;stroke:none" />
  </g>
</svg>
